<svg width="164" height="48" viewBox="0 0 164 48" fill="none" xmlns="http://www.w3.org/2000/svg">
<path d="M33.9054 39.5676L1.89611 17.5007C-1.34765 15.2646 -0.244983 10.6087 3.7999 9.51378L37.8201 0.285812C38.5407 0.0259306 39.313 -0.0584318 40.0729 0.0397324C40.8326 0.137897 41.5581 0.415752 42.189 0.850242C42.8197 1.28473 43.3378 1.86332 43.7001 2.53799C44.0623 3.21266 44.2583 3.96395 44.2719 4.7295L42.2557 36.0226C42.0166 39.737 37.1492 41.8037 33.9054 39.5676Z" fill="#EF5D28" fill-opacity="0.8"/>
<path d="M23.753 45.0152L4.89531 8.15866C4.46424 7.3155 4.27456 6.36972 4.34716 5.42565C4.41976 4.48158 4.75184 3.57589 5.30676 2.80846C5.8617 2.04103 6.61791 1.44167 7.49203 1.07647C8.36615 0.711276 9.3242 0.594442 10.2605 0.738862L45.2086 6.1294C46.0131 6.25353 46.7767 6.56675 47.4367 7.0433C48.0965 7.51987 48.6338 8.14616 49.0044 8.87069C49.3748 9.59521 49.568 10.3973 49.5678 11.2109C49.5676 12.0246 49.3742 12.8266 49.0036 13.551L32.9044 45.017C32.4721 45.8577 31.8162 46.5632 31.0088 47.0555C30.2015 47.548 29.274 47.8084 28.3282 47.8082C27.3824 47.808 26.4549 47.5473 25.6477 47.0546C24.8405 46.5617 24.185 45.8561 23.753 45.0152Z" fill="#12939A"/>
<path d="M44.1859 5.97046L26.7645 3.2832L5.375 9.08746L13.9126 25.7798L33.9051 39.5674C34.3461 39.8682 34.8313 40.0986 35.3432 40.2503L42.9369 25.4089L44.1859 5.97046Z" fill="#1C1C1C"/>
<path d="M159.95 17.1972C162.187 17.1972 164 15.3849 164 13.1494C164 10.9138 162.187 9.10156 159.95 9.10156C157.712 9.10156 155.899 10.9138 155.899 13.1494C155.899 15.3849 157.712 17.1972 159.95 17.1972Z" fill="#1C1C1C"/>
<path d="M74.3019 25.7971C75.8027 26.1489 76.9635 26.8758 77.7842 27.978C78.6284 29.0567 79.0505 30.3113 79.0505 31.7417C79.0505 33.9226 78.3236 35.611 76.8697 36.8069C75.4392 37.9795 73.3756 38.5657 70.6789 38.5657H57.6289V13.6617H70.3271C72.8597 13.6617 74.853 14.2128 76.3069 15.315C77.7608 16.4171 78.4877 18.0234 78.4877 20.134C78.4877 21.5879 78.1008 22.819 77.327 23.8273C76.5766 24.8122 75.5682 25.4688 74.3019 25.7971ZM65.4378 23.3701H68.4628C69.1663 23.3701 69.6822 23.2294 70.0105 22.948C70.3623 22.6666 70.5382 22.2327 70.5382 21.6465C70.5382 21.0368 70.3623 20.5912 70.0105 20.3098C69.6822 20.005 69.1663 19.8526 68.4628 19.8526H65.4378V23.3701ZM68.9905 32.3045C69.694 32.3045 70.2099 32.1756 70.5382 31.9176C70.8899 31.6362 71.0658 31.1907 71.0658 30.581C71.0658 29.385 70.374 28.787 68.9905 28.787H65.4378V32.3045H68.9905Z" fill="black"/>
<path d="M89.4833 12.5361V38.5657H81.6744V12.5361H89.4833Z" fill="black"/>
<path d="M114.01 18.7269V38.5657H106.201V35.5406C105.591 36.4786 104.77 37.2408 103.739 37.827C102.73 38.4133 101.522 38.7064 100.115 38.7064C97.8408 38.7064 96.0586 37.9443 94.7689 36.42C93.5026 34.8958 92.8694 32.8322 92.8694 30.2292V18.7269H100.643V29.2443C100.643 30.1823 100.889 30.9327 101.382 31.4955C101.898 32.0349 102.578 32.3045 103.422 32.3045C104.29 32.3045 104.97 32.0349 105.462 31.4955C105.955 30.9327 106.201 30.1823 106.201 29.2443V18.7269H114.01Z" fill="black"/>
<path d="M129.883 31.9176V38.5657H126.928C121.488 38.5657 118.768 35.8572 118.768 30.4403V25.2343H116.305V18.7269H118.768V13.9431H126.576V18.7269H129.813V25.2343H126.576V30.581C126.576 31.05 126.682 31.39 126.893 31.601C127.128 31.8121 127.503 31.9176 128.019 31.9176H129.883Z" fill="black"/>
<path d="M146.751 18.5862C149.026 18.5862 150.796 19.3484 152.062 20.8726C153.352 22.3969 153.997 24.4605 153.997 27.0634V38.5657H146.223V28.0483C146.223 27.1103 145.965 26.3717 145.45 25.8323C144.957 25.2695 144.289 24.9881 143.445 24.9881C142.577 24.9881 141.897 25.2695 141.404 25.8323C140.912 26.3717 140.666 27.1103 140.666 28.0483V38.5657H132.857V12.5361H140.666V21.752C141.275 20.814 142.084 20.0519 143.093 19.4656C144.125 18.8794 145.344 18.5862 146.751 18.5862Z" fill="black"/>
</svg>
