<svg width="19" height="20" viewBox="0 0 19 20" fill="none" xmlns="http://www.w3.org/2000/svg">
<path d="M5.54199 12.1836H7.12533C7.12533 13.0386 8.20991 13.7669 9.50033 13.7669C10.7907 13.7669 11.8753 13.0386 11.8753 12.1836C11.8753 11.3128 11.052 10.9961 9.31033 10.5765C7.63199 10.1569 5.54199 9.63443 5.54199 7.43359C5.54199 6.01651 6.70574 4.81318 8.31283 4.40943V2.68359H10.6878V4.40943C12.2949 4.81318 13.4587 6.01651 13.4587 7.43359H11.8753C11.8753 6.57859 10.7907 5.85026 9.50033 5.85026C8.20991 5.85026 7.12533 6.57859 7.12533 7.43359C7.12533 8.30443 7.94866 8.62109 9.69033 9.04068C11.3687 9.46026 13.4587 9.98276 13.4587 12.1836C13.4587 13.6007 12.2949 14.804 10.6878 15.2078V16.9336H8.31283V15.2078C6.70574 14.804 5.54199 13.6007 5.54199 12.1836Z" fill="black" fill-opacity="0.3"/>
</svg>
